<?xml version="1.0" encoding="UTF-8" standalone="no"?>
<!-- Generator: Adobe Illustrator 13.0.0, SVG Export Plug-In . SVG Version: 6.00 Build 14948)  -->

<svg
   xmlns:dc="http://purl.org/dc/elements/1.1/"
   xmlns:cc="http://creativecommons.org/ns#"
   xmlns:rdf="http://www.w3.org/1999/02/22-rdf-syntax-ns#"
   xmlns:svg="http://www.w3.org/2000/svg"
   xmlns="http://www.w3.org/2000/svg"
   xmlns:sodipodi="http://sodipodi.sourceforge.net/DTD/sodipodi-0.dtd"
   xmlns:inkscape="http://www.inkscape.org/namespaces/inkscape"
   version="1.1"
   id="Layer_1"
   x="0px"
   y="0px"
   width="480"
   height="320"
   viewBox="0 0 480 320"
   enable-background="new 0 0 500 500"
   xml:space="preserve"
   inkscape:version="0.48.4 r9939"
   sodipodi:docname="background.svg"><metadata
     id="metadata8156"><rdf:RDF><cc:Work
         rdf:about=""><dc:format>image/svg+xml</dc:format><dc:type
           rdf:resource="http://purl.org/dc/dcmitype/StillImage" /><dc:title /></cc:Work></rdf:RDF></metadata><defs
     id="defs8154" /><sodipodi:namedview
     pagecolor="#313131"
     bordercolor="#666666"
     borderopacity="1"
     objecttolerance="10"
     gridtolerance="10"
     guidetolerance="10"
     inkscape:pageopacity="1"
     inkscape:pageshadow="2"
     inkscape:window-width="1301"
     inkscape:window-height="744"
     id="namedview8152"
     showgrid="false"
     inkscape:zoom="2"
     inkscape:cx="241.39744"
     inkscape:cy="215.59881"
     inkscape:window-x="65"
     inkscape:window-y="24"
     inkscape:window-maximized="1"
     inkscape:current-layer="layer3"
     borderlayer="true"
     inkscape:showpageshadow="false"
     showguides="false"
     inkscape:guide-bbox="true"><sodipodi:guide
       orientation="0,1"
       position="210.01071,276.47875"
       id="guide3840" /></sodipodi:namedview><g
     id="max_width__x2F__height"
     display="none"
     style="display:none"
     transform="translate(0,-180)"><path
       display="inline"
       d="M 499.001,1 V 499 H 1 V 1 h 498.001 m 1,-1 H 0 V 500 H 500.001 V 0 l 0,0 z"
       id="path8137"
       inkscape:connector-curvature="0"
       style="display:inline" /></g><path
     style="fill:none;fill-opacity:1;stroke:none"
     d="m 0,0 480,0 0,320 -480,0 z"
     id="rect3206"
     inkscape:connector-curvature="0"
     sodipodi:nodetypes="ccccc" /><g
     inkscape:groupmode="layer"
     id="layer2"
     inkscape:label="Calque#1"
     style="display:inline"><rect
       style="color:#000000;fill:#4e4e4e;fill-opacity:1;fill-rule:nonzero;stroke:none;stroke-width:8;marker:none;visibility:visible;display:inline;overflow:visible;enable-background:accumulate"
       id="rect3037"
       width="480"
       height="320"
       x="0"
       y="-1.7763568e-14"
       ry="0" /></g><g
     inkscape:groupmode="layer"
     id="layer3"
     inkscape:label="Calque#2"
     style="display:inline"><rect
       style="opacity:0.80263157;color:#000000;fill:#252525;fill-opacity:1;fill-rule:nonzero;stroke:none;stroke-width:8;marker:none;visibility:visible;display:inline;overflow:visible;enable-background:accumulate"
       id="rect3070"
       width="98.287842"
       height="140.3607"
       x="51.053825"
       y="43.874802" /><rect
       style="opacity:0.80263157;color:#000000;fill:#252525;fill-opacity:1;fill-rule:nonzero;stroke:none;stroke-width:8;marker:none;visibility:visible;display:inline;overflow:visible;enable-background:accumulate"
       id="rect3070-8"
       width="98.287842"
       height="140.3607"
       x="151.28621"
       y="43.874805" /><rect
       style="opacity:0.80263157;color:#000000;fill:#252525;fill-opacity:1;fill-rule:nonzero;stroke:none;stroke-width:8;marker:none;visibility:visible;display:inline;overflow:visible;enable-background:accumulate"
       id="rect3070-7"
       width="98.287842"
       height="140.3607"
       x="251.34183"
       y="43.874805" /><rect
       style="opacity:0.80263157;color:#000000;fill:#252525;fill-opacity:1;fill-rule:nonzero;stroke:none;stroke-width:8;marker:none;visibility:visible;display:inline;overflow:visible;enable-background:accumulate"
       id="rect3070-6"
       width="98.287842"
       height="140.3607"
       x="351.39743"
       y="43.874805" /></g><g
     inkscape:groupmode="layer"
     id="layer5"
     inkscape:label="Calque#3"
     style="display:inline" /><g
     inkscape:groupmode="layer"
     id="layer9"
     inkscape:label="Calque#4"><g
       transform="matrix(1.5010742,0,-0.32349878,0.66618958,3.1912295e-7,-2.1569479e-6)"
       style="font-size:60.04297638px;font-style:normal;font-weight:normal;line-height:125%;letter-spacing:0px;word-spacing:0px;fill:#5a5a5a;fill-opacity:1;stroke:none;display:inline;font-family:Sans"
       id="text3887"><path
         d="m 29.661624,22.530774 -6.171409,0 0,-2.154863 c -10e-6,-1.358375 -0.05864,-2.208592 -0.175908,-2.550653 -0.11728,-0.342022 -0.395799,-0.513043 -0.835559,-0.513063 -0.38114,2e-5 -0.640114,0.146609 -0.776923,0.439768 -0.136824,0.293198 -0.205232,1.045689 -0.205225,2.257475 l 0,11.389989 c -7e-6,1.06522 0.0684,1.768848 0.205225,2.110886 0.136809,0.332272 0.410442,0.498407 0.8209,0.498403 0.449532,4e-6 0.752483,-0.190562 0.908854,-0.571698 0.166125,-0.381128 0.249192,-1.123846 0.249202,-2.228157 l 0,-2.814515 -1.246009,0 0,-3.606097 7.226852,0 0,12.73861 -3.884616,0 -0.571699,-1.700436 c -0.420233,0.732948 -0.95284,1.2851 -1.597823,1.656459 -0.635229,0.361587 -1.38772,0.54238 -2.257475,0.542381 -1.035904,-1e-6 -2.008279,-0.249202 -2.917127,-0.747606 C 17.5338,36.769482 16.849717,36.144035 16.380634,35.401314 15.911546,34.658598 15.618368,33.881676 15.501098,33.070545 15.383825,32.24965 15.32519,31.023187 15.325191,29.391153 l 0,-7.050945 c -1e-6,-2.26723 0.122156,-3.913915 0.366473,-4.940059 0.244314,-1.026104 0.943055,-1.964275 2.096227,-2.814515 1.162937,-0.859967 2.663033,-1.289961 4.500291,-1.289986 1.807925,2.5e-5 3.308021,0.371384 4.500292,1.114079 1.192246,0.742742 1.969168,1.627163 2.33077,2.653266 0.361571,1.016372 0.542365,2.496923 0.54238,4.441656 l 0,1.026125"
         style="font-size:30.02148819px;font-variant:normal;font-weight:bold;font-stretch:normal;fill:#5a5a5a;font-family:Impact;-inkscape-font-specification:Impact Bold"
         id="path3892"
         inkscape:connector-curvature="0" /><path
         d="m 37.782671,18.074459 -0.234543,2.550654 c 0.859983,-1.827461 2.105991,-2.794949 3.738027,-2.902468 l 0,6.84572 c -1.08477,1.3e-5 -1.881238,0.146602 -2.389405,0.439768 -0.508184,0.293191 -0.820908,0.703641 -0.938172,1.23135 -0.117278,0.51796 -0.175914,1.719991 -0.175907,3.606097 l 0,7.681279 -5.922208,0 0,-19.4524 5.922208,0"
         style="font-size:30.02148819px;font-variant:normal;font-weight:bold;font-stretch:normal;fill:#5a5a5a;font-family:Impact;-inkscape-font-specification:Impact Bold"
         id="path3894"
         inkscape:connector-curvature="0" /><path
         d="m 85.556124,18.074459 -2.770538,19.4524 -7.725256,0 -2.975763,-19.4524 5.291874,0 1.656459,14.189844 c 0.127037,-1.035891 0.342034,-3.57677 0.644993,-7.622643 0.175899,-2.25746 0.371351,-4.446525 0.586357,-6.567201 l 5.291874,0"
         style="font-size:30.02148819px;font-variant:normal;font-weight:bold;font-stretch:normal;fill:#5a5a5a;font-family:Impact;-inkscape-font-specification:Impact Bold"
         id="path3900"
         inkscape:connector-curvature="0" /><path
         d="m 99.863241,28.145144 -7.66662,0 0,4.207113 c -7e-6,0.87954 0.06352,1.446352 0.190566,1.700436 0.127037,0.254091 0.371352,0.381135 0.732946,0.381132 0.449533,3e-6 0.747597,-0.166131 0.894195,-0.498404 0.156353,-0.342037 0.234534,-0.996802 0.234543,-1.964296 l 0,-2.565313 5.61437,0 0,1.436575 c -1.4e-5,1.202038 -0.0782,2.12555 -0.234543,2.770538 -0.146603,0.644996 -0.498417,1.333965 -1.055443,2.066909 -0.557052,0.732948 -1.265566,1.2851 -2.125545,1.656459 -0.850228,0.361587 -1.920328,0.54238 -3.210305,0.542381 -1.250902,-10e-7 -2.355207,-0.180794 -3.312918,-0.542381 -0.957721,-0.361586 -1.705325,-0.855103 -2.242817,-1.480552 -0.527723,-0.635218 -0.894196,-1.329073 -1.099419,-2.081568 -0.205226,-0.76226 -0.307839,-1.866565 -0.307838,-3.312918 l 0,-5.673006 c -10e-7,-1.700421 0.229656,-3.039269 0.68897,-4.016546 0.459311,-0.987017 1.211802,-1.739508 2.257475,-2.257476 1.045666,-0.527702 2.247697,-0.791562 3.606097,-0.791582 1.661336,2e-5 3.029502,0.31763 4.1045,0.952831 1.084748,0.625465 1.842126,1.461024 2.272134,2.506677 0.439754,1.035913 0.659638,2.496918 0.659652,4.38302 l 0,2.579971 m -5.936866,-3.166329 0,-1.421916 c -9e-6,-1.006565 -0.05376,-1.656443 -0.161249,-1.949637 -0.107507,-0.293163 -0.32739,-0.439752 -0.659652,-0.439768 -0.410457,1.6e-5 -0.664545,0.12706 -0.762264,0.381132 -0.09773,0.244331 -0.146596,0.913755 -0.146589,2.008273 l 0,1.421916 1.729754,0"
         style="font-size:30.02148819px;font-variant:normal;font-weight:bold;font-stretch:normal;fill:#5a5a5a;font-family:Impact;-inkscape-font-specification:Impact Bold"
         id="path3902"
         inkscape:connector-curvature="0" /><path
         d="m 107.266,13.794052 6.15675,0 c 1.94474,2.4e-5 3.41552,0.151499 4.41234,0.454427 1.00656,0.302974 1.81769,0.918648 2.43338,1.847025 0.61566,0.918647 0.9235,2.404083 0.92351,4.456315 -1e-5,1.387727 -0.2199,2.355216 -0.65965,2.902468 -0.43001,0.54728 -1.28511,0.967502 -2.56531,1.260668 1.42679,0.322509 2.39427,0.860002 2.90246,1.612482 0.50817,0.742729 0.76225,1.886125 0.76227,3.430189 l 0,2.19884 c -2e-5,1.602714 -0.1857,2.790086 -0.55704,3.56212 -0.3616,0.772038 -0.94307,1.299759 -1.74441,1.583164 -0.80137,0.283406 -2.44317,0.425109 -4.9254,0.425109 l -7.1389,0 0,-23.732807 m 6.17141,4.060524 0,5.277214 c 0.26385,-0.0098 0.46908,-0.01464 0.61567,-0.01466 0.6059,1.5e-5 0.99191,-0.146574 1.15806,-0.439768 0.16612,-0.302936 0.24919,-1.158039 0.2492,-2.565312 -1e-5,-0.742701 -0.0684,-1.26065 -0.20523,-1.553847 -0.13682,-0.302932 -0.31761,-0.493498 -0.54238,-0.571698 -0.215,-0.07816 -0.64011,-0.122138 -1.27532,-0.13193 m 0,8.971265 0,6.640495 c 0.86975,-0.02931 1.4219,-0.166131 1.65646,-0.41045 0.2443,-0.244311 0.36646,-0.845327 0.36647,-1.803049 l 0,-2.213498 c -1e-5,-1.016343 -0.10751,-1.632017 -0.3225,-1.847025 -0.215,-0.214987 -0.78181,-0.337145 -1.70043,-0.366473"
         style="font-size:30.02148819px;font-variant:normal;font-weight:bold;font-stretch:normal;fill:#5a5a5a;font-family:Impact;-inkscape-font-specification:Impact Bold"
         id="path3904"
         inkscape:connector-curvature="0" /><path
         d="m 150.7737,18.074459 -2.36009,9.293762 2.85849,10.158638 -5.76095,0 c -0.56682,-2.560424 -0.99682,-4.764147 -1.28999,-6.611177 -0.39091,2.306343 -0.81602,4.510066 -1.27533,6.611177 l -4.95472,0 2.55066,-10.158638 -2.55066,-9.293762 4.95472,0 c 0.79158,3.9677 1.21669,6.220286 1.27533,6.757767 0.5668,-3.312902 0.9968,-5.565489 1.28999,-6.757767 l 5.26255,0"
         style="font-size:30.02148819px;font-variant:normal;font-weight:bold;font-stretch:normal;fill:#5a5a5a;font-family:Impact;-inkscape-font-specification:Impact Bold"
         id="path3908"
         inkscape:connector-curvature="0" /></g><g
       style="font-size:40px;font-style:normal;font-weight:normal;line-height:125%;letter-spacing:0px;word-spacing:0px;fill:#543737;fill-opacity:1;stroke:none;display:inline;font-family:Sans"
       id="text4023"
       transform="matrix(1.637222,0,-0.33457381,1,-40.934543,7.2478423)" /></g><g
     inkscape:groupmode="layer"
     id="layer8"
     inkscape:label="Calque"><path
       id="path4028-8"
       style="font-size:20px;font-style:normal;font-variant:normal;font-weight:bold;font-stretch:normal;line-height:125%;letter-spacing:0px;word-spacing:0px;fill:#4d4545;fill-opacity:1;stroke:none;display:inline;font-family:Impact;-inkscape-font-specification:Impact Bold"
       d="m 194.82902,18.799225 c -0.6029,1.588547 -1.10289,2.714848 -1.49999,3.378907 -0.38256,0.657554 -1.0464,1.259767 -1.99147,1.80664 -0.93302,0.546876 -2.07779,0.966797 -3.43432,1.259766 -1.35656,0.292968 -2.86305,0.439453 -4.51949,0.439453 -1.57182,0 -2.93456,-0.136719 -4.08823,-0.410156 -1.13912,-0.279948 -1.98453,-0.696614 -2.53622,-1.25 -0.55171,-0.553384 -0.77657,-1.155597 -0.67457,-1.806641 0.10198,-0.651038 0.46184,-1.79036 1.07955,-3.417969 l 1.02662,-2.705078 c 0.60288,-1.588532 1.0956,-2.711577 1.47815,-3.369142 0.39712,-0.664049 1.06217,-1.269517 1.99517,-1.816406 0.94509,-0.54686 2.0959,-0.9667803 3.45246,-1.2597643 1.35653,-0.292953 3.26407,-4.151748 4.92054,-4.151764 1.57179,1.6e-5 2.52621,3.8523 3.66534,4.132232 1.15365,0.273453 2.00634,0.6868633 2.55807,1.2402343 0.55168,0.553399 0.77653,1.155612 0.67457,1.80664 -0.10203,0.651054 -0.46187,1.790376 -1.07955,3.41797 l -1.02663,2.705078 m -5.66366,-5.195313 c 0.27919,-0.735665 0.3785,-1.204414 0.29792,-1.40625 -0.066,-0.20832 -0.33482,-0.312487 -0.80635,-0.3125 -0.39901,1.3e-5 -0.73945,0.08465 -1.02131,0.253906 -0.26733,0.162773 -0.55541,0.651054 -0.86425,1.464844 l -2.80191,7.382813 c -0.34841,0.917972 -0.49687,1.484378 -0.44538,1.699219 0.0635,0.214846 0.34923,0.322268 0.85705,0.322266 0.5199,2e-6 0.89934,-0.123696 1.13833,-0.371094 0.23898,-0.247393 0.53513,-0.836585 0.88847,-1.767578 l 2.75743,-7.265626 m -92.97773,5.90242 c -0.602902,1.588547 -1.102894,2.714848 -1.499992,3.378907 -0.38256,0.657554 -1.046394,1.259767 -1.991466,1.80664 -0.933018,0.546876 -2.077791,0.966797 -3.434319,1.259766 -1.356558,0.292968 -2.863054,0.439453 -4.519491,0.439453 -1.571819,0 -2.934563,-0.136719 -4.088229,-0.410156 -1.139119,-0.279948 -1.984527,-0.696614 -2.536227,-1.25 -0.551705,-0.553384 -0.776563,-1.155597 -0.674568,-1.806641 0.101987,-0.651038 0.461841,-1.79036 1.079548,-3.417969 l 1.026628,-2.705078 c 0.60288,-1.588531 1.095596,-2.711577 1.478149,-3.369141 0.397117,-0.664049 1.062163,-1.269517 1.995171,-1.816406 0.945083,-0.54686 2.095901,-0.966782 3.452457,-1.259766 1.356532,-0.292953 3.264073,-4.1517483 4.920536,-4.1517643 1.571795,1.6e-5 2.52621,3.8523013 3.665343,4.1322333 1.153653,0.273453 2.00634,0.686864 2.558066,1.240234 0.551681,0.5534 0.776539,1.155613 0.67457,1.806641 -0.102025,0.651054 -0.461863,1.790375 -1.079548,3.417969 l -1.026628,2.705078 m -5.663662,-5.195313 c 0.27919,-0.735664 0.378505,-1.204414 0.297926,-1.40625 -0.06604,-0.20832 -0.334823,-0.312486 -0.806351,-0.3125 -0.399012,1.4e-5 -0.739449,0.08465 -1.021312,0.253906 -0.26733,0.162774 -0.555413,0.651055 -0.864252,1.464844 l -2.801912,7.382813 c -0.348404,0.917972 -0.496863,1.484378 -0.445379,1.699219 0.06355,0.214846 0.349228,0.322268 0.857052,0.322266 0.519898,2e-6 0.899341,-0.123696 1.138334,-0.371094 0.238979,-0.247393 0.535123,-0.836585 0.888462,-1.767578 l 2.757439,-7.265626 m -15.21709,4.979825 c -0.602902,1.588547 -1.102894,2.714848 -1.499992,3.378907 -0.38256,0.657554 -1.046394,1.259767 -1.991466,1.80664 -0.933018,0.546877 -2.077791,0.966797 -3.434319,1.259766 -1.356558,0.292968 -2.863055,0.439453 -4.519492,0.439453 -1.57182,0 -2.934563,-0.136719 -4.088229,-0.410156 -1.139119,-0.279948 -1.984527,-0.696614 -2.536227,-1.25 -0.551705,-0.553384 -0.776563,-1.155597 -0.674568,-1.806641 0.101987,-0.651038 0.461841,-1.79036 1.079548,-3.417969 l 1.026628,-2.705077 c 0.60288,-1.588532 1.095596,-2.711578 1.478148,-3.369142 0.397118,-0.664049 1.062164,-1.269517 1.995171,-1.816406 0.945084,-0.54686 2.095902,-0.966782 3.452458,-1.259766 1.356533,-0.2929523 3.264074,-4.1517473 4.920537,-4.1517633 1.571795,1.6e-5 2.52621,3.8523 3.665343,4.1322323 1.153653,0.273453 2.006341,0.686864 2.558067,1.240234 0.55168,0.5534 0.776538,1.155613 0.674569,1.806641 -0.102025,0.651054 -0.461863,1.790375 -1.079547,3.41797 l -1.026629,2.705077 m -5.663662,-5.195313 c 0.27919,-0.735664 0.378506,-1.204414 0.297927,-1.40625 -0.06604,-0.20832 -0.334824,-0.312486 -0.806352,-0.3125 -0.399012,1.4e-5 -0.739449,0.08465 -1.021312,0.253907 -0.26733,0.162773 -0.555413,0.651054 -0.864251,1.464843 l -2.801914,7.382813 c -0.348404,0.917972 -0.496863,1.484378 -0.445379,1.699219 0.06355,0.214846 0.349228,0.322268 0.857052,0.322266 0.519898,2e-6 0.899341,-0.123696 1.138334,-0.371094 0.238979,-0.247392 0.535123,-0.836585 0.888463,-1.767578 l 2.757439,-7.265626"
       inkscape:connector-curvature="0" /></g></svg>