<?xml version="1.0" encoding="UTF-8" standalone="no"?>
<!-- Generator: Adobe Illustrator 13.0.0, SVG Export Plug-In . SVG Version: 6.00 Build 14948)  -->

<svg
   xmlns:dc="http://purl.org/dc/elements/1.1/"
   xmlns:cc="http://creativecommons.org/ns#"
   xmlns:rdf="http://www.w3.org/1999/02/22-rdf-syntax-ns#"
   xmlns:svg="http://www.w3.org/2000/svg"
   xmlns="http://www.w3.org/2000/svg"
   xmlns:xlink="http://www.w3.org/1999/xlink"
   xmlns:sodipodi="http://sodipodi.sourceforge.net/DTD/sodipodi-0.dtd"
   xmlns:inkscape="http://www.inkscape.org/namespaces/inkscape"
   version="1.1"
   id="Layer_1"
   x="0px"
   y="0px"
   width="64"
   height="64"
   viewBox="0 0 64 64"
   enable-background="new 0 0 500 500"
   xml:space="preserve"
   inkscape:version="0.48.3.1 r9886"
   sodipodi:docname="Toggle-off.svg"><metadata
   id="metadata8156"><rdf:RDF><cc:Work
       rdf:about=""><dc:format>image/svg+xml</dc:format><dc:type
         rdf:resource="http://purl.org/dc/dcmitype/StillImage" /><dc:title /></cc:Work></rdf:RDF></metadata><defs
   id="defs8154"><linearGradient
     id="linearGradient3982"><stop
       style="stop-color:#4b4b4b;stop-opacity:1;"
       offset="0"
       id="stop3984" /><stop
       id="stop3992"
       offset="0.64285713"
       style="stop-color:#4d4d4d;stop-opacity:0.75396824;" /><stop
       style="stop-color:#474747;stop-opacity:0.46825397;"
       offset="1"
       id="stop3986" /></linearGradient><linearGradient
     id="linearGradient3843"><stop
       style="stop-color:#ffffff;stop-opacity:0.52380955;"
       offset="0"
       id="stop3845" /><stop
       style="stop-color:#ffffff;stop-opacity:0;"
       offset="1"
       id="stop3847" /></linearGradient><linearGradient
     inkscape:collect="always"
     xlink:href="#linearGradient3843"
     id="linearGradient3849"
     x1="6.3639612"
     y1="12.027653"
     x2="6.3639612"
     y2="21.927147"
     gradientUnits="userSpaceOnUse" /><radialGradient
     inkscape:collect="always"
     xlink:href="#linearGradient3982"
     id="radialGradient3990"
     cx="32"
     cy="32"
     fx="32"
     fy="32"
     r="30.5"
     gradientTransform="matrix(1,0,0,1.0163934,0,-0.52459016)"
     gradientUnits="userSpaceOnUse" /></defs><sodipodi:namedview
   pagecolor="#ffffff"
   bordercolor="#666666"
   borderopacity="1"
   objecttolerance="10"
   gridtolerance="10"
   guidetolerance="10"
   inkscape:pageopacity="0"
   inkscape:pageshadow="2"
   inkscape:window-width="1301"
   inkscape:window-height="744"
   id="namedview8152"
   showgrid="false"
   inkscape:zoom="2.8284271"
   inkscape:cx="-43.657794"
   inkscape:cy="14.516515"
   inkscape:window-x="65"
   inkscape:window-y="24"
   inkscape:window-maximized="1"
   inkscape:current-layer="layer3"
   borderlayer="true"
   inkscape:showpageshadow="false"
   showguides="true"
   inkscape:guide-bbox="true"><sodipodi:guide
     orientation="1,0"
     position="6.363961,47.022601"
     id="guide4721" /></sodipodi:namedview>
<g
   id="max_width__x2F__height"
   display="none"
   style="display:none"
   transform="translate(0,-436)">
	<path
   display="inline"
   d="M 499.001,1 V 499 H 1 V 1 h 498.001 m 1,-1 H 0 V 500 H 500.001 V 0 l 0,0 z"
   id="path8137"
   inkscape:connector-curvature="0"
   style="display:inline" />
</g>

<g
   inkscape:groupmode="layer"
   id="layer1"
   inkscape:label="Calque"
   style="display:inline"><path
     inkscape:connector-curvature="0"
     style="fill:#808080;fill-opacity:1;stroke:none"
     d="m 10,0 44,0 c 5.54,0 10,4.46 10,10 l 0,44 c 0,5.54 -4.46,10 -10,10 L 10,64 C 4.46,64 0,59.54 0,54 L 0,10 C 0,4.46 4.46,0 10,0 z"
     id="rect3543" /></g><g
   inkscape:groupmode="layer"
   id="layer3"
   inkscape:label="Calque#2"
   style="display:inline"><path
     inkscape:connector-curvature="0"
     style="fill:url(#radialGradient3990);fill-opacity:1;stroke:#000000;stroke-width:3;stroke-miterlimit:4;stroke-opacity:0.52970296;stroke-dasharray:none"
     d="m 12.0625,2.5 39.875,0 C 56.958125,2.5 61,6.6115626 61,11.718751 L 61,52.28125 C 61,57.388438 56.958125,61.5 51.9375,61.5 l -39.875,0 C 7.041875,61.5 3,57.388438 3,52.28125 L 3,11.718751 C 3,6.6115626 7.041875,2.5 12.0625,2.5 z"
     id="rect3543-0" /></g><g
   inkscape:groupmode="layer"
   id="layer2"
   inkscape:label="Calque#1"
   style="display:inline"><path
     inkscape:connector-curvature="0"
     style="fill:url(#linearGradient3849);fill-opacity:1;stroke:none"
     d="m 10,0 44,0 c 5.54,0 10,4.46 10,10 l 0,44 c 0,5.54 -4.46,10 -10,10 L 10,64 C 4.46,64 0,59.54 0,54 L 0,10 C 0,4.46 4.46,0 10,0 z"
     id="rect3543-1" /></g></svg>